#!OML:ASF I:\Actors\actors\Patient Classification 2\Patient 1\Session 1\actor1.ASF
:FULLY-SPECIFIED
:DEGREES
326
root -0.746861 18.6881 6.20899 3.43891 -9.12854 -4.87906
lowerback 5.97044 -1.3764 1.06185
upperback -2.76371 -1.73082 0.34986
thorax -6.25102 -0.889462 -0.0355244
lowerneck 8.89615 -20.9209 -17.9263
upperneck 0.0842331 -30.1283 18.3739
head 4.08377 -15.3599 6.45929
rclavicle 2.3761e-014 7.95139e-016
rhumerus 1.00731 11.985 -70.4473
rradius 95.2425
rwrist 1.36441
rhand -33.5445 -31.8324
rfingers 7.12502
rthumb -6.73986 -61.7052
lclavicle 2.3761e-014 7.95139e-016
lhumerus -52.891 5.3572 82.8816
lradius 44.2499
lwrist -4.81982
lhand -4.79801 -24.7255
lfingers 7.12502
lthumb 20.9875 4.159
rfemur 0 0 0
rtibia 0
rfoot 0 0
rtoes 0
lfemur -2.97331 -4.48364 -10.0461
ltibia 22.0803
lfoot -27.0356 17.654
ltoes -54.2737
327
root -0.732038 18.6849 6.21288 3.43368 -10.0615 -4.89546
lowerback 5.79869 -1.56056 0.667327
upperback -2.70261 -2.01062 0.390071
thorax -6.07532 -1.01072 0.252432
lowerneck 9.10624 -21.1115 -17.8587
upperneck -0.049828 -30.4252 18.6443
head 4.09826 -15.5221 6.50291
rclavicle -8.1626e-015 -3.97569e-015
rhumerus 0.484215 13.6867 -71.7554
rradius 94.7388
rwrist 1.26504
rhand -33.4415 -31.9681
rfingers 7.12502
rthumb -6.64043 -61.844
lclavicle -8.1626e-015 -3.97569e-015
lhumerus -53.1257 5.39907 82.968
lradius 43.7425
lwrist -5.10536
lhand -4.14159 -23.9999
lfingers 7.12502
lthumb 21.618 4.81334
rfemur 0 0 0
rtibia 0
rfoot 0 0
rtoes 0
lfemur -2.57959 -4.36587 -10.2212
ltibia 21.9211
lfoot -27.5138 18.0512
ltoes -53.9911
328
root -0.715843 18.68 6.21532 3.38398 -10.9342 -4.99058
lowerback 5.60977 -1.74679 0.379436
upperback -2.57562 -2.28183 0.449819
thorax -5.82022 -1.13279 0.495804
lowerneck 9.14302 -21.2503 -17.8036
upperneck -0.0636607 -30.644 18.9061
head 4.16314 -15.6355 6.53061
rclavicle -2.79292e-014 1.59028e-015
rhumerus 0.126133 15.3538 -72.7632
rradius 94.1796
rwrist 1.18631
rhand -33.1673 -31.8956
rfingers 7.12502
rthumb -6.37573 -61.7797
lclavicle -2.79292e-014 1.59028e-015
lhumerus -53.2029 5.28541 83.1256
lradius 43.2633
lwrist -5.40096
lhand -3.20846 -23.6058
lfingers 7.12502
lthumb 22.5139 5.10168
rfemur 0 0 0
rtibia 0
rfoot 0 0
rtoes 0
lfemur -2.16605 -4.20169 -10.2958
ltibia 21.7694
lfoot -27.9282 18.3739
ltoes -53.6427
329
root -0.697899 18.6759 6.2171 3.35431 -11.753 -5.07143
lowerback 5.49231 -1.91322 0.122049
upperback -2.53494 -2.522 0.517237
thorax -5.6952 -1.24109 0.729319
lowerneck 9.14891 -21.3305 -17.8573
upperneck 0.107908 -30.8116 19.1061
head 4.28609 -15.7182 6.54618
rclavicle -3.6887e-014 -5.56597e-015
rhumerus -0.231742 17.0125 -73.446
rradius 93.5609
rwrist 1.11399
rhand -32.9628 -31.7637
rfingers 7.12502
rthumb -6.17832 -61.6536
lclavicle -3.6887e-014 -5.56597e-015
lhumerus -53.4474 5.03153 83.3663
lradius 43.0624
lwrist -5.76961
lhand -2.43059 -23.3575
lfingers 7.12502
lthumb 23.2603 5.25764
rfemur 0 0 0
rtibia 0
rfoot 0 0
rtoes 0
lfemur -1.82377 -3.96502 -10.3813
ltibia 21.6459
lfoot -28.2419 18.6881
ltoes -53.4031
330
root -0.678364 18.6733 6.21923 3.30322 -12.5093 -5.04311
lowerback 5.30603 -2.08822 -0.207656
upperback -2.45628 -2.78116 0.53062
thorax -5.4875 -1.35847 0.943686
lowerneck 9.12479 -21.3969 -17.7671
upperneck 0.229432 -30.9289 19.2344
head 4.35629 -15.775 6.54108
rclavicle 1.10822e-014 7.95139e-016
rhumerus -0.403803 18.6595 -73.8934
rradius 92.8522
rwrist 1.45015
rhand -33.0412 -31.5778
rfingers 7.12502
rthumb -6.25401 -61.4655
lclavicle 1.10822e-014 7.95139e-016
lhumerus -53.5861 4.80812 83.5242
lradius 42.9391
lwrist -6.3274
lhand -1.29043 -22.7406
lfingers 7.12502
lthumb 24.3538 5.73199
rfemur 0 0 0
rtibia 0
rfoot 0 0
rtoes 0
lfemur -1.51699 -3.86015 -10.6145
ltibia 21.5582
lfoot -28.6497 19.0476
ltoes -53.1165
331
root -0.658188 18.6707 6.22093 3.1734 -13.1843 -5.02921
lowerback 5.17852 -2.29 -0.571993
upperback -2.32249 -3.07557 0.569675
thorax -5.24895 -1.49304 1.20609
lowerneck 9.10414 -21.4403 -17.5971
upperneck 0.228501 -30.986 19.3414
head 4.36267 -15.8043 6.54266
rclavicle -3.58309e-014 -3.97569e-015
rhumerus -0.36121 20.3521 -74.0688
rradius 92.1682
rwrist 2.20448
rhand -33.134 -31.5393
rfingers 7.12502
rthumb -6.34358 -61.4243
lclavicle -3.58309e-014 -3.97569e-015
lhumerus -53.4479 4.65211 83.659
lradius 42.6012
lwrist -6.89251
lhand -0.06394 -22.2014
lfingers 7.12502
lthumb 25.5291 6.10816
rfemur 0 0 0
rtibia 0
rfoot 0 0
rtoes 0
lfemur -1.1505 -3.81845 -10.8386
ltibia 21.4877
lfoot -29.0548 19.4337
ltoes -52.8971
332
root -0.638152 18.6668 6.21914 3.04965 -13.7934 -5.09562
lowerback 5.12656 -2.44317 -0.856324
upperback -2.19463 -3.29616 0.653034
thorax -5.05999 -1.59373 1.46463
lowerneck 8.99997 -21.5275 -17.4837
upperneck 0.327045 -31.1051 19.381
head 4.4193 -15.8561 6.50399
rclavicle -4.48384e-014 -1.19271e-014
rhumerus -0.0520402 21.8271 -73.794
rradius 91.5551
rwrist 2.7605
rhand -32.9464 -31.7643
rfingers 7.12502
rthumb -6.16248 -61.6547
lclavicle -4.48384e-014 -1.19271e-014
lhumerus -53.206 4.3267 83.926
lradius 42.3422
lwrist -7.09179
lhand 0.444616 -22.1471
lfingers 7.12502
lthumb 26.0162 6.09175
rfemur 0 0 0
rtibia 0
rfoot 0 0
rtoes 0
lfemur -0.81258 -3.66787 -10.9335
ltibia 21.4122
lfoot -29.3363 19.7237
ltoes -52.7667
333
root -0.617583 18.6625 6.21551 2.99679 -14.3422 -5.17428
lowerback 5.05204 -2.54258 -1.06105
upperback -2.11156 -3.43796 0.755297
thorax -4.90868 -1.65799 1.69041
lowerneck 8.91604 -21.6372 -17.4955
upperneck 0.427523 -31.2694 19.4207
head 4.49994 -15.9299 6.46808
rclavicle 3.01283e-014 -1.59028e-015
rhumerus 0.483623 22.9717 -73.1618
rradius 90.9538
rwrist 2.99129
rhand -32.4347 -31.3534
rfingers 7.12502
rthumb -5.6684 -61.2576
lclavicle 3.01283e-014 -1.59028e-015
lhumerus -52.9671 3.9178 84.2575
lradius 42.282
lwrist -7.06603
lhand 0.468725 -22.3309
lfingers 7.12502
lthumb 26.0393 5.90461
rfemur 0 0 0
rtibia 0
rfoot 0 0
rtoes 0
lfemur -0.568095 -3.60213 -11.0029
ltibia 21.3213
lfoot -29.6918 19.9276
ltoes -52.4516
334
root -0.595908 18.6611 6.20752 2.90735 -14.9119 -5.11398
lowerback 5.00411 -2.62521 -1.46579
upperback -2.01626 -3.57016 0.881133
thorax -4.74528 -1.71184 2.05136
lowerneck 8.94363 -21.6844 -17.6183
upperneck 0.319494 -31.3503 19.5739
head 4.52236 -15.9735 6.50868
rclavicle -2.4202e-014 1.03368e-014
rhumerus 1.37128 23.9999 -72.2374
rradius 90.364
rwrist 3.04641
rhand -31.8126 -30.3686
rfingers 7.12502
rthumb -5.06777 -60.288
lclavicle -2.4202e-014 1.03368e-014
lhumerus -52.6561 3.6218 84.6357
lradius 42.4157
lwrist -6.7715
lhand 0.47891 -22.1543
lfingers 7.12502
lthumb 26.049 6.07972
rfemur 0 0 0
rtibia 0
rfoot 0 0
rtoes 0
lfemur -0.327608 -3.64344 -11.2475
ltibia 21.2196
lfoot -30.0872 20.2584
ltoes -52.1444
335
root -0.574739 18.6619 6.19482 2.76863 -15.5264 -4.94262
lowerback 5.02106 -2.6731 -1.99895
upperback -1.91367 -3.66727 0.959732
thorax -4.60604 -1.74588 2.43499
lowerneck 9.02109 -21.7184 -17.6981
upperneck 0.152016 -31.4134 19.7936
head 4.52168 -16.0135 6.57554
rclavicle -4.8255e-014 -7.95139e-015
rhumerus 2.26751 24.736 -71.2441
rradius 90.0679
rwrist 3.31248
rhand -30.8822 -30.1576
rfingers 7.12502
rthumb -4.1694 -60.0965
lclavicle -4.8255e-014 -7.95139e-015
lhumerus -52.3424 3.4104 84.8781
lradius 42.5845
lwrist -6.53573
lhand 0.245365 -22.1118
lfingers 7.12502
lthumb 25.8254 6.15497
rfemur 0 0 0
rtibia 0
rfoot 0 0
rtoes 0
lfemur -0.0869678 -3.60961 -11.6066
ltibia 21.1279
lfoot -30.4199 20.6539
ltoes -51.9222
336
root -0.553754 18.6606 6.18764 2.66681 -16.0634 -4.84754
lowerback 4.9929 -2.69899 -2.26728
upperback -1.82441 -3.71913 0.954227
thorax -4.47808 -1.76709 2.57809
lowerneck 9.21775 -21.7144 -17.7433
upperneck -0.0571042 -31.4465 20.1495
head 4.50457 -16.0495 6.69749
rclavicle 1.38031e-014 2.38542e-015
rhumerus 2.62137 24.8226 -70.6123
rradius 90.3669
rwrist 3.97466
rhand -30.2931 -30.0163
rfingers 7.12502
rthumb -3.60051 -59.9656
lclavicle 1.38031e-014 2.38542e-015
lhumerus -52.049 3.13784 84.9074
lradius 42.3342
lwrist -6.60308
lhand -1.20569 -23.6968
lfingers 7.12502
lthumb 24.435 4.76483
rfemur 0 0 0
rtibia 0
rfoot 0 0
rtoes 0
lfemur 0.111055 -3.4838 -11.8643
ltibia 21.0851
lfoot -30.6805 20.9201
ltoes -51.7481
337
root -0.5312 18.6588 6.1848 2.63583 -16.517 -4.86392
lowerback 4.93882 -2.72285 -2.24599
upperback -1.77058 -3.74933 0.917479
thorax -4.39336 -1.78537 2.52548
lowerneck 9.5352 -21.6349 -17.8325
upperneck -0.313682 -31.3951 20.5714
head 4.45849 -16.0544 6.87396
rclavicle -3.00413e-014 7.15625e-015
rhumerus 5.07886 25.1004 -69.1098
rradius 89.2791
rwrist 3.76639
rhand -29.9742 -29.8986
rfingers 7.12502
rthumb -3.29255 -59.8529
lclavicle -3.00413e-014 7.15625e-015
lhumerus -51.808 2.63768 85.0507
lradius 42.151
lwrist -5.43253
lhand -3.13101 -25.4253
lfingers 7.12502
lthumb 22.5882 3.27319
rfemur 0 0 0
rtibia 0
rfoot 0 0
rtoes 0
lfemur 0.234347 -3.35666 -11.9981
ltibia 21.0939
lfoot -30.8854 21.1324
ltoes -51.7023
338
root -0.509098 18.6552 6.2035 2.68709 -16.7991 -5.08853
lowerback 4.63281 -2.79417 -1.90731
upperback -1.73056 -3.81482 0.951442
thorax -4.19395 -1.83108 2.35741
lowerneck 9.71945 -21.6049 -17.8829
upperneck -0.347436 -31.3936 20.686
head 4.44826 -16.0672 6.93268
rclavicle 2.3233e-015 -9.54166e-015
rhumerus 6.90105 24.8601 -67.9958
rradius 88.9511
rwrist 3.63872
rhand -29.5053 -30.1814
rfingers 7.12502
rthumb -2.83971 -60.1422
lclavicle 2.3233e-015 -9.54166e-015
lhumerus -51.6841 2.22011 85.1897
lradius 42.9375
lwrist -4.32539
lhand -2.77025 -24.1684
lfingers 7.12502
lthumb 22.9344 4.4875
rfemur 0 0 0
rtibia 0
rfoot 0 0
rtoes 0
lfemur 0.375955 -3.16304 -11.8894
ltibia 21.1358
lfoot -31.0656 21.1226
ltoes -51.6931
